<svg version="1.2" xmlns="http://www.w3.org/2000/svg" viewBox="0 0 500 500" width="500" height="500">
	<title>logo (1)</title>
	<style>
		.s0 { fill: #ffffff } 
	</style>
	<g>
		<g>
			<path class="s0" d="m246.5 398.77c-17.45 0-31.55-14.2-31.55-31.77 0-17.57 14.1-31.77 31.55-31.77 17.46 0 31.56 14.2 31.56 31.77 0 17.57-14.1 31.77-31.56 31.77z"/>
			<g>
				<path class="s0" d="m369.79 145h-66.47l-35.42 87.97c24.08 1.13 44.54 16.13 53.7 37.25l14.37-36.49 66.23 165.04h68.76z"/>
			</g>
			<path class="s0" d="m174.79 398.77h-114.23c-17.43 0-31.56-14.23-31.56-31.77 0-17.55 14.13-31.77 31.56-31.77h114.23c17.43 0 31.56 14.22 31.56 31.77 0 17.54-14.13 31.77-31.56 31.77z"/>
			<g>
				<path class="s0" d="m95.94 145.08c-36.97 0-66.94 30.17-66.94 67.39v30.03c0 37.22 31.5 67.54 68.47 67.54h151.94c24.7 0 44.72 20.16 44.72 45.02v6.37c0 6.35-1.33 12.37-3.69 17.83-0.04 0.09 0.07 0.17 0.15 0.11 14.12-11.63 23.14-29.31 23.14-49.11v-20.11c0-35.04-28.21-63.44-63.01-63.44h-141.09c-10.88 0-19.67-9.02-19.38-20.03 0.27-10.73 9.61-19 20.27-19h146.75l25.23-62.67z"/>
			</g>
			<g>
			</g>
			<g>
			</g>
			<g>
			</g>
			<g>
			</g>
			<g>
			</g>
		</g>
	</g>
</svg>